# xmcd
#
# Track frame offsets: 
#        182
#        18447
#        41632
#        64067
#        82137
#        101587
#        121195
#        145052
#        166075
#        184060
#        203475
#        224665
#
# Disc length: 3074 seconds
#
# Revision: 1
# Processed by: cddbd v1.5.2PL0 Copyright (c) Steve Scherf et al.
# Submitted via: ExactAudioCopy v1.0b3
#
DISCID=a50c000c
DTITLE=Terry Ellis - Southern Gal
DYEAR=1995
DGENRE=R&B
TTITLE0=She's A Lady
TTITLE1=It Ain't Over
TTITLE2=Where Ever You Are
TTITLE3=I Don't Want To Wait Till Tomorrow
TTITLE4=What  Did I Do To You?
TTITLE5=Slow Dance
TTITLE6=I Don't Mind
TTITLE7=You Make Me High
TTITLE8=Back Down Memory Lane
TTITLE9=It's You That I Need (Bonus Track)
TTITLE10=Sista Sista
TTITLE11=Southern Gal (Interlude)
EXTD=
EXTT0=
EXTT1=
EXTT2=
EXTT3=
EXTT4=
EXTT5=
EXTT6=
EXTT7=
EXTT8=
EXTT9=
EXTT10=
EXTT11=
PLAYORDER=
